<svg viewBox="0 0 182 21.827" width="182"> <path d="M4.689 17.334h3.319v-2.393c0-.857-.702-1.557-1.563-1.557h-.937a1.56 1.56 0 01-1.539-1.556V8.615H5.24c.858 0 1.563-.695 1.563-1.555V4.664H3.965L3.959.125C1.746.479.033 2.374 0 4.664v8c-.002 2.58 2.103 4.67 4.689 4.67m40.816-3.947h-.938a1.558 1.558 0 01-1.536-1.557V8.616h1.268a1.56 1.56 0 001.564-1.556V4.665H43.02L43.014.126c-2.213.354-3.925 2.249-3.958 4.539v8c0 2.571 2.104 4.662 4.692 4.662h3.32v-2.392a1.555 1.555 0 00-1.563-1.548M21.349 4.672l-.01-.018v12.68h2.41c.861 0 1.563-.693 1.563-1.554L25.298.067c-2.235.355-3.949 2.285-3.949 4.605M81.1 17.465h3.319v-2.394c0-.856-.701-1.556-1.563-1.556h-.938a1.559 1.559 0 01-1.539-1.555V8.745h1.269c.861 0 1.563-.694 1.563-1.555V4.799h-2.84L80.367.258c-2.215.353-3.93 2.25-3.959 4.541v7.996c.002 2.578 2.106 4.67 4.692 4.67m-18.122-.131a1.96 1.96 0 001.724-.972L67.843 11l-3.144-5.363a1.97 1.97 0 00-1.725-.974h-3.359l3.666 6.335-3.666 6.334 3.363.002m9.444-6.336l3.666-6.333h-3.363a1.954 1.954 0 00-1.719.974l-3.144 5.359 3.144 5.364c.366.63 1.036.979 1.719.972h3.363l-3.666-6.336m25.947-6.326H95.05c-.245 0-.485.021-.722.06L94.324.117c-2.211.354-3.906 2.257-3.906 4.556l-.01 12.521h2.369c.854 0 1.547-.689 1.547-1.537l.008-6.747a.418.418 0 01.404-.342h3.944a.41.41 0 01.409.405v8.221h2.368c.854 0 1.548-.689 1.548-1.537v-6.37c.001-2.544-2.081-4.615-4.636-4.615m19.519-.059l-.01-.02v12.543h2.383c.854 0 1.546-.69 1.546-1.539L121.794.056c-2.211.354-3.906 2.261-3.906 4.557m46.415 1.62v6.683a.411.411 0 01-.411.406h-3.944a.411.411 0 01-.41-.406V6.233c0-.849-.688-1.535-1.545-1.535h-2.367v7.903c0 2.541 2.08 4.606 4.641 4.606l3.794-.006s-.416.728-1.279.728l-.933-.004c-.854 0-1.547.688-1.547 1.541v2.36h3.283c2.56 0 4.644-2.065 4.644-4.606V4.699h-2.368c-.865 0-1.558.688-1.558 1.534m-52.268-1.534h-3.318c-2.561 0-4.641 2.068-4.641 4.607V12.6c0 2.545 2.08 4.609 4.641 4.609h3.318c2.56 0 4.643-2.064 4.643-4.609V9.307c-.006-2.541-2.089-4.608-4.643-4.608zm.718 8.217a.407.407 0 01-.406.405h-3.95a.41.41 0 01-.406-.405V8.993c0-.217.188-.403.406-.403h3.95c.228 0 .406.188.406.403v3.923zM125.394.059l-2.37-.002c0 3.998 3.885 4.567 3.885 4.567.021 0-3.895.748-3.895 4.554v7.959h2.381c.854 0 1.548-.69 1.548-1.539V1.596a1.546 1.546 0 00-1.549-1.537m11.439 1.48v11.305a.411.411 0 01-.408.401h-3.951a.41.41 0 01-.406-.401V8.945c0-.223.188-.407.406-.407h3.154V6.184a1.54 1.54 0 00-1.547-1.536h-1.293c-2.563 0-4.646 2.069-4.646 4.614v3.264c0 2.544 2.082 4.613 4.646 4.613h3.322c2.559 0 4.641-2.069 4.641-4.613V0h-2.37c-.85 0-1.548.689-1.548 1.539m12.993 3.258h-3.279c-2.524 0-4.586 2.047-4.586 4.56v3.228c0 2.518 2.062 4.563 4.586 4.563h1.275c.842 0 1.522-.688 1.522-1.521v-2.33h-3.114a.403.403 0 01-.4-.397V9.047c0-.217.188-.398.4-.398h3.902c.22 0 .403.186.403.398v6.569c0 .836.688 1.519 1.521 1.519h2.352V9.361c.004-2.519-2.055-4.564-4.582-4.564m24.22 3.729l6.402-.003c.854 0 1.549-.688 1.549-1.536V4.621l-7.991.01c-2.308 0-4.582 1.672-4.582 3.883v.004c0 2.258 2.274 3.885 4.584 3.885l3.396-.005c.23 0 .426.188.426.429 0 .23-.153.42-.396.42l-6.463-.01c-.853 0-1.547.688-1.547 1.537v2.367l7.989-.015c2.309 0 4.584-1.672 4.584-3.881v-.004c0-2.256-2.275-3.882-4.584-3.882h-3.367a.424.424 0 01-.428-.42.419.419 0 01.428-.413M13.121 17.27h7.123v-2.434c0-.875-.717-1.589-1.603-1.589H12.79a.424.424 0 01-.422-.42V9.098c0-.229.19-.42.422-.42h3.1c.081 0 .279-.028.195.11l-2.387 2.989-.35.597h3.079a3.882 3.882 0 003.601-2.404c.15-.375.25-.78.273-1.205.005-.082.01-.166.01-.252 0-2.131-1.736-3.858-3.885-3.858-.14 0-.273.007-.414.021a3.815 3.815 0 00-.457-.021h-2.439c-2.646 0-4.793 2.138-4.793 4.765v3.079c.005 2.636 2.155 4.771 4.798 4.771m18.003 0h7.121v-2.434c0-.875-.715-1.589-1.6-1.589h-5.851a.425.425 0 01-.424-.42V9.098c0-.229.194-.42.424-.42h3.097c.082 0 .281-.028.197.11L31.7 11.777l-.35.597h3.079A3.879 3.879 0 0038.03 9.97c.149-.375.25-.78.273-1.205.007-.082.014-.166.014-.252 0-2.131-1.74-3.858-3.889-3.858-.14 0-.273.007-.414.021a3.805 3.805 0 00-.457-.021h-2.439c-2.646 0-4.793 2.138-4.793 4.765v3.079c.007 2.636 2.157 4.771 4.799 4.771M55.376 4.664a4.33 4.33 0 00-.414.021 3.635 3.635 0 00-.457-.021h-2.443c-2.645 0-4.795 2.141-4.795 4.766v3.08c0 2.627 2.15 4.765 4.795 4.765h7.12V14.84c0-.871-.716-1.589-1.599-1.589h-5.852a.426.426 0 01-.425-.42V9.102c0-.229.193-.42.425-.42h3.1c.082 0 .281-.028.197.11l-2.392 2.99-.346.601h3.08a3.88 3.88 0 003.054-1.479c.227-.28.405-.593.543-.927.153-.377.25-.781.278-1.205.004-.083.009-.168.009-.252.006-2.127-1.733-3.856-3.878-3.856" fill="#FFF"></path> </svg>